<?xml version="1.0" encoding="utf-8"?>
<!-- Generator: Adobe Illustrator 16.0.0, SVG Export Plug-In . SVG Version: 6.00 Build 0)  -->
<!DOCTYPE svg PUBLIC "-//W3C//DTD SVG 1.1//EN" "http://www.w3.org/Graphics/SVG/1.1/DTD/svg11.dtd">
<svg version="1.1" id="Layer_1" xmlns="http://www.w3.org/2000/svg" xmlns:xlink="http://www.w3.org/1999/xlink" x="0px" y="0px"
width="100%" height="auto" viewBox="0 0 414 736" enable-background="new 0 0 414 736" xml:space="preserve">
<g>

<rect x="-89.204" y="202.822" transform="matrix(0.856 -0.5169 0.5169 0.856 -119.5612 148.0504)" fill="#FF0000" width="590.445" height="171.71"/>
<g>
<path fill="#FFFFFF" d="M9.951,321.304l42.597,95.08c2.003,4.521,3.653,8.607,4.947,12.25c1.292,3.648,2.177,6.885,2.654,9.717
c0.497,2.746,0.675,5.416,0.53,8c-0.141,2.588-0.613,5.143-1.416,7.657c-2.452,7.356-7.638,13.428-15.561,18.208
c-9.465,5.716-20.334,6.874-32.617,3.477l1.244-19.035c8.869,2.198,15.667,1.862,20.4-0.995c4.359-2.633,6.215-6.833,5.561-12.604
c-0.476-5.59-3.861-15.405-10.166-29.451l-36.359-81.325L9.951,321.304z"/>
<path fill="#FFFFFF" d="M133.927,311.975l36.103,80.719l-17.625,10.641l-3.875-8.762c-3.571,11.149-9.396,19.166-17.478,24.046
c-9.945,6.003-20.089,7.521-30.442,4.554c-10.349-2.965-18.766-9.815-25.252-20.561c-7.477-12.385-10.021-24.71-7.623-36.965
c2.501-12.319,9.439-21.916,20.819-28.784c5.37-3.241,10.471-5.124,15.307-5.65c4.888-0.555,10.625,0.118,17.212,2.017
l-4.774-10.614L133.927,311.975z M133.849,360.34c-4.012-6.646-9.185-10.89-15.515-12.725c-6.365-1.888-12.577-1.006-18.638,2.656
c-6.594,3.979-10.567,9.896-11.921,17.748c-1.321,7.91,0.3,15.637,4.856,23.188c3.981,6.595,9.1,10.866,15.356,12.821
c6.257,1.954,12.312,1.167,18.161-2.366c6.487-3.916,10.505-9.938,12.062-18.056C139.701,375.38,138.247,367.623,133.849,360.34z"
/>
<path fill="#FFFFFF" d="M176.757,286.119l3.439,7.501c2.362-9.548,7.448-16.687,15.263-21.405
c4.734-2.855,8.906-4.177,12.519-3.962c3.547,0.107,7.708,1.838,12.492,5.19c2.662-12.414,8.298-21.224,16.911-26.426
c14.888-8.985,26.459-6.645,34.707,7.019c0.836,1.384,1.888,3.395,3.155,6.038c1.268,2.643,2.8,5.929,4.589,9.853l19.883,44.477
l-17.626,10.642l-20.815-46.743c-1.961-4.327-3.52-7.448-4.675-9.364c-3.947-6.54-9.22-7.821-15.811-3.84
c-2.607,1.574-4.634,3.322-6.082,5.249c-1.448,1.926-2.361,4.111-2.739,6.551c-0.376,2.439-0.229,5.212,0.452,8.321
s1.857,6.589,3.528,10.44l20.22,45.034l-17.625,10.64l-21.411-47.908c-1.96-4.327-3.391-7.24-4.291-8.728
c-3.755-6.219-9.008-7.291-15.76-3.214c-9.785,5.905-11.407,16.135-4.872,30.687l20.094,45.005l-17.628,10.64l-36.103-80.716
L176.757,286.119z"/>
<path fill="#FFFFFF" d="M323.515,257.378c3.336,5.53,7.994,8.921,13.974,10.172c6.032,1.221,12.052,0.016,18.061-3.613
c8.241-4.973,12.708-11.876,13.399-20.71l17.54-0.686c-0.85,8.93-2.955,16.077-6.318,21.441
c-3.384,5.454-8.742,10.395-16.082,14.825c-11.644,7.03-22.994,9.202-34.046,6.515c-11.052-2.685-20.044-9.771-26.979-21.257
c-7.254-12.017-9.519-24.36-6.791-37.034c2.7-12.587,9.821-22.362,21.36-29.329c11.164-6.74,22.146-8.438,32.948-5.089
c10.936,3.337,20.099,11.121,27.48,23.348c0.771,1.278,1.941,3.4,3.518,6.367L323.515,257.378z M355.381,218.769
c-8.86-10.466-18.767-12.394-29.719-5.782c-10.368,6.26-13.623,16.133-9.764,29.615L355.381,218.769z"/>
<path fill="#FFFFFF" d="M429.65,144.771l-3.951,15.986c-7.215-1.373-12.816-0.86-16.803,1.548
c-2.713,1.636-4.503,3.751-5.37,6.343c-0.868,2.589-0.624,5.002,0.725,7.234c1.316,2.182,3.168,3.566,5.554,4.154
c2.42,0.646,6.781,0.84,13.089,0.591c9.031-0.3,15.638,0.426,19.817,2.18c4.305,1.608,7.957,4.888,10.939,9.832
c4.303,7.125,5.278,14.332,2.934,21.625c-2.482,7.305-7.767,13.395-15.85,18.273c-11.007,6.646-23.126,7.179-36.359,1.603
l6.7-15.04c8.17,2.834,14.937,2.628,20.309-0.616c3.03-1.83,4.981-4.095,5.854-6.795c0.87-2.703,0.537-5.329-1.004-7.881
c-1.349-2.235-3.211-3.575-5.587-4.027c-1.164-0.244-3.043-0.415-5.643-0.515c-2.6-0.098-6.009-0.035-10.226,0.187
c-7.53,0.269-13.285-0.43-17.26-2.094c-4.077-1.82-7.475-4.99-10.204-9.51c-4.109-6.806-5.015-13.952-2.711-21.434
c2.302-7.482,7.306-13.553,15.019-18.208C408.128,143.07,418.138,141.924,429.65,144.771z"/>
</g>
</g>
</svg>
