<?xml version="1.0" encoding="utf-8"?>
<!-- Generator: Adobe Illustrator 16.0.0, SVG Export Plug-In . SVG Version: 6.00 Build 0)  -->
<!DOCTYPE svg PUBLIC "-//W3C//DTD SVG 1.1//EN" "http://www.w3.org/Graphics/SVG/1.1/DTD/svg11.dtd">
<svg version="1.1" id="Layer_1" xmlns="http://www.w3.org/2000/svg" xmlns:xlink="http://www.w3.org/1999/xlink" x="0px" y="0px"
width="20%" height="auto" viewBox="0 0 960 960" enable-background="new 0 0 960 960" xml:space="preserve">
<g>
<g>
<path fill="white" d="M248,534.787c0,8.256,0.081,17.228-0.537,26.914c-0.62,9.697-2.184,18.67-5.067,26.915
c-2.892,8.247-7.323,15.155-13.512,20.723c-6.186,5.57-14.8,8.35-25.935,8.35c-10.729,0-20.297-3.706-28.745-11.139
c-8.458-7.42-13.288-16.482-14.526-27.217l-88.459,21.65c7.007,35.062,22.477,60.849,46.401,77.332
c23.915,16.493,53.202,24.751,87.853,24.751c29.693,0,53.717-4.441,72.073-13.303c18.347-8.861,32.479-20.621,42.376-35.264
c8.588-12.699,14.373-27.032,18.15-42.991L248,309.146V534.787z"/>
<polygon fill="#333333" points="345,254 340.818,254 345,271.87 		"/>
<path fill="#2B2B2B" d="M345,545.31V271.87L340.818,254H248v55.146l90.072,302.362c0.576-2.438,1.156-4.91,1.621-7.425
C343.192,585.114,345,565.517,345,545.31z"/>
</g>
<path fill="white" d="M247.973,253.912h108.425l72.067,289.554h1.279l94.389-289.554h92.48l93.754,297.213h1.276l75.897-297.213
h100.768l-132.02,451.555h-88.654L568.14,392.949h-1.274l-99.493,312.518h-85.465L247.973,253.912z"/>
<polygon fill="#2B2B2B" points="566.865,392.949 524.133,253.912 524.133,253.912 560.373,413.345 	"/>
<polygon fill="#2B2B2B" points="756.289,705.467 717.949,524.557 710.367,551.125 756.289,705.467 	"/>
<polyline fill="#333333" points="338.072,611.509 247.973,253.912 248,338 337.199,615.012 	"/>
</g>
</svg>
