<?xml version="1.0" encoding="utf-8"?>
<!-- Generator: Adobe Illustrator 16.0.0, SVG Export Plug-In . SVG Version: 6.00 Build 0)  -->
<!DOCTYPE svg PUBLIC "-//W3C//DTD SVG 1.1//EN" "http://www.w3.org/Graphics/SVG/1.1/DTD/svg11.dtd">
<svg version="1.1" id="Layer_1" xmlns="http://www.w3.org/2000/svg" xmlns:xlink="http://www.w3.org/1999/xlink" x="0px" y="0px"
	 width="40%" height="auto" viewBox="0 0 960 560" enable-background="new 0 0 960 560" xml:space="preserve">
<g>
	<polygon points="686.014,80.5 686.014,109.956 639.612,136.67 639.612,127.846 638.793,116.817 637.99,80.5 587.161,80.5 
		587.161,166.869 541.616,193.092 538.744,194.681 538.744,154.843 538.744,80.5 492.344,80.5 492.344,221.462 492.344,221.798 
		429.805,204.707 429.805,80.5 278.5,80.5 278.5,245.029 279.451,237.746 606.251,354.541 556.118,381.344 278.5,283.042 
		278.5,455.305 449.183,505.973 742.5,345.532 742.5,80.5 	"/>
	<polygon points="742.5,544.5 742.5,390.808 470.353,544.5 	"/>
	<polygon points="278.5,544.5 413.029,544.5 278.5,504.854 	"/>
</g>
</svg>
