<svg xmlns="http://www.w3.org/2000/svg" version="1.1" x="0" y="0" width="auto" height="11rem" viewBox="0 0 1024 1024" enable-background="new 0 0 1024 1024" xml:space="preserve"><g id="Layer_1"><circle fill="#FFFFFF" cx="220.88" cy="167.95" r="16.43"/><path fill="#FFFFFF" d="M273.81 257.38c-9.07 0.01-16.42 7.37-16.41 16.45 0.01 9.06 7.35 16.41 16.41 16.41 9.07-0.01 16.42-7.37 16.41-16.45C290.21 264.73 282.87 257.39 273.81 257.38z"/><circle fill="#FFFFFF" cx="273.81" cy="326.74" r="16.43"/><path fill="#FFFFFF" d="M167.95 290.24c9.07-0.01 16.42-7.37 16.41-16.45 -0.01-9.06-7.35-16.4-16.41-16.41 -9.07 0.01-16.42 7.37-16.41 16.45C151.54 282.89 158.89 290.23 167.95 290.24z"/><circle fill="#FFFFFF" cx="167.95" cy="326.74" r="16.43"/><path fill="#FFFFFF" d="M326.74 78.52c9.07 0 16.43-7.36 16.42-16.44 0-9.07-7.35-16.42-16.42-16.42 -9.07 0-16.43 7.36-16.42 16.44C310.32 71.17 317.67 78.52 326.74 78.52z"/><circle fill="#FFFFFF" cx="273.81" cy="115.02" r="16.43"/><path fill="#FFFFFF" d="M379.67 45.66c-9.07 0-16.43 7.36-16.42 16.44 0.01 9.07 7.35 16.42 16.42 16.42 9.07 0 16.43-7.36 16.42-16.44C396.09 53.01 388.74 45.67 379.67 45.66z"/><circle fill="#FFFFFF" cx="326.74" cy="115.02" r="16.43"/><path fill="#FFFFFF" d="M167.95 627.9c-9.07 0.01-16.42 7.37-16.41 16.45 0.01 9.06 7.35 16.41 16.41 16.41 9.07-0.01 16.42-7.37 16.41-16.44C184.36 635.25 177.01 627.91 167.95 627.9z"/><circle fill="#FFFFFF" cx="115.02" cy="220.88" r="16.43"/><path fill="#FFFFFF" d="M62.09 257.38c-9.07 0.01-16.42 7.37-16.41 16.45 0.01 9.06 7.35 16.41 16.41 16.41 9.07-0.01 16.42-7.37 16.41-16.45C78.5 264.73 71.15 257.39 62.09 257.38z"/><circle fill="#FFFFFF" cx="62.09" cy="220.88" r="16.43"/><path fill="#FFFFFF" d="M62.09 733.76c-9.07 0.01-16.42 7.37-16.41 16.45 0.01 9.06 7.35 16.41 16.41 16.41 9.07-0.01 16.42-7.37 16.41-16.45C78.5 741.11 71.15 733.77 62.09 733.76z"/><circle fill="#FFFFFF" cx="115.02" cy="115.02" r="16.43"/><path fill="#FFFFFF" d="M432.6 78.52c9.07 0 16.43-7.36 16.42-16.44 0-9.07-7.35-16.42-16.42-16.42 -9.07 0-16.43 7.36-16.42 16.44C416.18 71.17 423.53 78.52 432.6 78.52z"/><circle fill="#FFFFFF" cx="167.95" cy="591.4" r="16.43"/><circle fill="#FFFFFF" cx="115.02" cy="167.95" r="16.43"/><circle fill="#FFFFFF" cx="167.95" cy="379.67" r="16.43"/><circle fill="#FFFFFF" cx="908.98" cy="115.02" r="16.43"/><circle fill="#FFFFFF" cx="856.05" cy="326.74" r="16.43"/><circle fill="#FFFFFF" cx="856.05" cy="538.47" r="16.43"/><path fill="#FFFFFF" d="M803.12 257.38c-9.07 0.01-16.42 7.37-16.41 16.45 0.01 9.06 7.35 16.41 16.41 16.41 9.07-0.01 16.42-7.37 16.41-16.45C819.53 264.73 812.18 257.39 803.12 257.38z"/><circle fill="#FFFFFF" cx="856.05" cy="220.88" r="16.43"/><path fill="#FFFFFF" d="M62.09 469.1c-9.07 0.01-16.42 7.37-16.41 16.45 0.01 9.06 7.35 16.41 16.41 16.41 9.07-0.01 16.42-7.37 16.41-16.45C78.5 476.45 71.15 469.11 62.09 469.1z"/><circle fill="#FFFFFF" cx="856.05" cy="167.95" r="16.43"/><path fill="#FFFFFF" d="M908.98 257.38c-9.07 0.01-16.42 7.37-16.41 16.45 0.01 9.06 7.35 16.41 16.41 16.41 9.07-0.01 16.42-7.37 16.41-16.45C925.39 264.73 918.04 257.39 908.98 257.38z"/><circle fill="#FFFFFF" cx="803.12" cy="167.95" r="16.43"/><circle fill="#FFFFFF" cx="856.05" cy="115.02" r="16.43"/><path fill="#FFFFFF" d="M644.33 78.52c9.07 0 16.43-7.36 16.42-16.44 0-9.07-7.35-16.42-16.42-16.42 -9.07 0-16.43 7.36-16.42 16.44C627.91 71.17 635.26 78.52 644.33 78.52z"/><path fill="#FFFFFF" d="M591.4 78.52c9.07 0 16.43-7.36 16.42-16.44 0-9.07-7.35-16.42-16.42-16.42 -9.07 0-16.43 7.36-16.42 16.44C574.98 71.17 582.33 78.52 591.4 78.52z"/><circle fill="#FFFFFF" cx="591.4" cy="115.02" r="16.43"/><circle fill="#FFFFFF" cx="644.33" cy="115.02" r="16.43"/><path fill="#FFFFFF" d="M750.19 78.52c9.07 0 16.43-7.36 16.42-16.44 0-9.07-7.35-16.42-16.42-16.42 -9.07 0-16.43 7.36-16.42 16.44C733.77 71.17 741.12 78.52 750.19 78.52z"/><path fill="#FFFFFF" d="M538.47 78.52c9.07 0 16.43-7.36 16.42-16.44 0-9.07-7.35-16.42-16.42-16.42 -9.07 0-16.43 7.36-16.42 16.44C522.05 71.17 529.4 78.52 538.47 78.52z"/><circle fill="#FFFFFF" cx="750.19" cy="220.88" r="16.43"/><circle fill="#FFFFFF" cx="750.19" cy="167.95" r="16.43"/><circle fill="#FFFFFF" cx="538.47" cy="115.02" r="16.43"/><path fill="#FFFFFF" d="M697.26 45.66c-9.07 0-16.43 7.36-16.42 16.44 0.01 9.07 7.35 16.42 16.42 16.42 9.07 0 16.43-7.36 16.42-16.44C713.68 53.01 706.33 45.67 697.26 45.66z"/><circle fill="#FFFFFF" cx="803.12" cy="591.4" r="16.43"/><path fill="#FFFFFF" d="M908.98 469.1c-9.07 0.01-16.42 7.37-16.41 16.45 0.01 9.06 7.35 16.41 16.41 16.41 9.07-0.01 16.42-7.37 16.41-16.45C925.39 476.45 918.04 469.11 908.98 469.1z"/><path fill="#FFFFFF" d="M961.91 733.76c-9.07 0.01-16.42 7.37-16.41 16.45 0.01 9.06 7.35 16.41 16.41 16.41 9.07-0.01 16.42-7.37 16.41-16.45C978.32 741.11 970.97 733.77 961.91 733.76z"/><path fill="#FFFFFF" d="M908.98 627.9c-9.07 0.01-16.42 7.37-16.41 16.45 0.01 9.06 7.35 16.41 16.41 16.41 9.07-0.01 16.42-7.37 16.41-16.44C925.39 635.25 918.04 627.91 908.98 627.9z"/><circle fill="#FFFFFF" cx="908.98" cy="379.67" r="16.43"/><path fill="#FFFFFF" d="M908.98 786.69c-9.07 0.01-16.42 7.37-16.41 16.45 0.01 9.06 7.35 16.41 16.41 16.41 9.07-0.01 16.42-7.37 16.41-16.45C925.39 794.04 918.04 786.7 908.98 786.69z"/><path fill="#FFFFFF" d="M750.19 839.62c-9.07 0.01-16.42 7.37-16.41 16.45 0.01 9.06 7.35 16.4 16.41 16.41 9.07-0.01 16.42-7.37 16.41-16.45C766.6 846.97 759.25 839.63 750.19 839.62z"/><path fill="#FFFFFF" d="M750.19 892.55c-9.07 0.01-16.42 7.37-16.41 16.45 0.01 9.06 7.35 16.41 16.41 16.41 9.07-0.01 16.42-7.37 16.41-16.45C766.6 899.9 759.25 892.56 750.19 892.55z"/><path fill="#FFFFFF" d="M803.12 786.69c-9.07 0.01-16.42 7.37-16.41 16.45 0.01 9.06 7.35 16.41 16.41 16.41 9.07-0.01 16.42-7.37 16.41-16.45C819.53 794.04 812.18 786.7 803.12 786.69z"/><path fill="#FFFFFF" d="M803.12 892.55c-9.07 0.01-16.42 7.37-16.41 16.45 0.01 9.06 7.35 16.41 16.41 16.41 9.07-0.01 16.42-7.37 16.41-16.45C819.53 899.9 812.18 892.56 803.12 892.55z"/><circle fill="#FFFFFF" cx="961.91" cy="326.74" r="16.43"/><path fill="#FFFFFF" d="M961.91 449.03c9.07-0.01 16.42-7.37 16.41-16.45 -0.01-9.06-7.35-16.4-16.41-16.41 -9.07 0.01-16.42 7.37-16.41 16.45C945.51 441.68 952.85 449.02 961.91 449.03z"/><circle fill="#FFFFFF" cx="961.91" cy="379.67" r="16.43"/><path fill="#FFFFFF" d="M860.16 0H163.84C73.36 0 0 73.36 0 163.84v696.32C0 950.64 73.36 1024 163.84 1024h696.32c90.48 0 163.84-73.36 163.84-163.84V163.84C1024 73.36 950.64 0 860.16 0zM1004.8 860.16c0 79.87-64.77 144.64-144.64 144.64H163.84c-79.87 0-144.64-64.77-144.64-144.64V163.84C19.2 83.97 83.97 19.2 163.84 19.2h696.32c79.87 0 144.64 64.77 144.64 144.64V860.16z"/><circle fill="#FFFFFF" cx="961.91" cy="538.47" r="16.43"/><circle fill="#FFFFFF" cx="961.91" cy="591.4" r="16.43"/><path fill="#FFFFFF" d="M961.91 627.9c-9.07 0.01-16.42 7.37-16.41 16.45 0.01 9.06 7.35 16.41 16.41 16.41 9.07-0.01 16.42-7.37 16.41-16.44C978.32 635.25 970.97 627.91 961.91 627.9z"/><path fill="#FFFFFF" d="M961.91 501.96c9.07-0.01 16.42-7.37 16.41-16.45 -0.01-9.06-7.35-16.4-16.41-16.41 -9.07 0.01-16.42 7.37-16.41 16.45C945.51 494.61 952.85 501.95 961.91 501.96z"/><path fill="#FFFFFF" d="M961.91 680.83c-9.07 0.01-16.42 7.37-16.41 16.45 0.01 9.06 7.35 16.41 16.41 16.41 9.07-0.01 16.42-7.37 16.41-16.45C978.32 688.18 970.97 680.84 961.91 680.83z"/><path fill="#FFFFFF" d="M167.95 839.62c-9.07 0.01-16.42 7.37-16.41 16.45 0.01 9.06 7.35 16.4 16.41 16.41 9.07-0.01 16.42-7.37 16.41-16.45C184.36 846.97 177.01 839.63 167.95 839.62z"/><path fill="#FFFFFF" d="M115.02 501.96c9.07-0.01 16.42-7.37 16.41-16.45 -0.01-9.06-7.35-16.4-16.41-16.41 -9.07 0.01-16.42 7.37-16.41 16.45C98.62 494.61 105.96 501.95 115.02 501.96z"/><path fill="#FFFFFF" d="M220.88 892.55c-9.07 0.01-16.42 7.37-16.41 16.45 0.01 9.06 7.35 16.41 16.41 16.41 9.07-0.01 16.42-7.37 16.41-16.45C237.29 899.9 229.94 892.56 220.88 892.55z"/><circle fill="#FFFFFF" cx="115.02" cy="326.74" r="16.43"/><circle fill="#FFFFFF" cx="220.88" cy="961.91" r="16.43"/><circle fill="#FFFFFF" cx="62.09" cy="326.74" r="16.43"/><path fill="#FFFFFF" d="M115.02 786.69c-9.07 0.01-16.42 7.37-16.41 16.45 0.01 9.06 7.35 16.41 16.41 16.41 9.07-0.01 16.42-7.37 16.41-16.45C131.43 794.04 124.08 786.7 115.02 786.69z"/><path fill="#FFFFFF" d="M115.02 839.62c-9.07 0.01-16.42 7.37-16.41 16.45 0.01 9.06 7.35 16.4 16.41 16.41 9.07-0.01 16.42-7.37 16.41-16.45C131.43 846.97 124.08 839.63 115.02 839.62z"/><path fill="#FFFFFF" d="M115.02 680.83c-9.07 0.01-16.42 7.37-16.41 16.45 0.01 9.06 7.35 16.41 16.41 16.41 9.07-0.01 16.42-7.37 16.41-16.45C131.43 688.18 124.08 680.84 115.02 680.83z"/><circle fill="#FFFFFF" cx="115.02" cy="591.4" r="16.43"/><path fill="#FFFFFF" d="M485.53 892.55c-9.07 0.01-16.42 7.37-16.41 16.45 0.01 9.06 7.35 16.41 16.41 16.41 9.07-0.01 16.42-7.37 16.41-16.45C501.94 899.9 494.59 892.56 485.53 892.55z"/><circle fill="#FFFFFF" cx="644.33" cy="961.91" r="16.43"/><path fill="#FFFFFF" d="M644.33 839.62c-9.07 0.01-16.42 7.37-16.41 16.45 0.01 9.06 7.35 16.4 16.41 16.41 9.07-0.01 16.42-7.37 16.41-16.45C660.74 846.97 653.39 839.63 644.33 839.62z"/><path fill="#FFFFFF" d="M697.26 839.62c-9.07 0.01-16.42 7.37-16.41 16.45 0.01 9.06 7.35 16.4 16.41 16.41 9.07-0.01 16.42-7.37 16.41-16.45C713.67 846.97 706.32 839.63 697.26 839.62z"/><circle fill="#FFFFFF" cx="538.47" cy="961.91" r="16.43"/><circle fill="#FFFFFF" cx="273.81" cy="961.91" r="16.43"/><circle fill="#FFFFFF" cx="432.6" cy="961.91" r="16.43"/><circle fill="#FFFFFF" cx="750.19" cy="961.91" r="16.43"/><path fill="#FFFFFF" d="M326.74 892.55c-9.07 0.01-16.42 7.37-16.41 16.45 0.01 9.06 7.35 16.41 16.41 16.41 9.07-0.01 16.42-7.37 16.41-16.45C343.15 899.9 335.8 892.56 326.74 892.55z"/></g><g id="Layer_2"><path display="none" fill-rule="evenodd" clip-rule="evenodd" d="M1036.06 1010.53c0 24.01-19.46 43.47-43.47 43.47H-33.22c-24.01 0-43.47-19.46-43.47-43.47V-15.27c0-24.01 19.46-43.47 43.47-43.47H992.59c24.01 0 43.47 19.46 43.47 43.47V1010.53z"/><path d="M857.08 690.88c-22.27-4.48-43.35-13.73-62.09-26.51 -28.72-19.58-52.02-46.83-69.39-76.79 -3.62-6.24-6.91-12.63-9.92-19.19 -4.64-10.12-8.83-22.09-1.61-32.1 6.65-9.22 18.67-13.85 29-17.48 12.7-4.46 25.55-7.94 37.24-14.86 8.53-5.05 17.49-12.19 19.94-22.31 6.42-26.59-31.59-40.05-51.35-31.56 -12.2 5.24-27.02 11.96-40.46 7.51 -0.87-0.29-2.4-0.57-3.04-1.23 -1.08-1.11-0.51-2.89-0.41-4.61 0.23-3.89 0.48-7.78 0.72-11.68 0.37-6.02 0.76-12.04 1.12-18.06 1.68-28.46 3.05-57.18 0.46-85.63 -1.15-12.64-3.08-25.33-6.96-37.44 -3.78-11.81-9.71-23.07-16.08-33.68 -11.86-19.77-27.09-37.47-45.22-51.74 -27.29-21.48-60.44-34.66-94.68-39.78 -9.99-1.51-20.12-2.36-30.24-2.36 -24.47 0.11-48.23 1.61-71.93 8.33 -37.79 10.72-71.88 32.26-96.65 62.9 -15.35 18.98-28.69 41.56-34.43 65.45 -6.39 26.62-6.34 54.7-5.5 81.9 0.44 14.37 1.28 28.72 2.18 43.07 0.22 3.47 0.44 6.93 0.66 10.39 0.15 2.33 1.84 11.16 0.45 12.75 -2.9 3.3-12.12 3.07-15.87 2.93 -6.73-0.25-13.37-1.85-19.72-4.01 -6.93-2.36-13.48-6.55-20.87-7.27 -11.58-1.12-24.4 3.68-32.39 12.13 -13.58 14.37-4.97 31.33 9.05 41.07 11.32 7.86 24.27 11.98 37.22 16.24 10.71 3.52 22.5 7.59 30.67 15.7 11.93 11.84 5.25 27.44-1.05 40.38 -4.91 10.08-10.64 19.77-16.89 29.08 -21.29 31.68-49.68 59.53-84.47 75.94 -10.48 4.94-21.46 8.8-32.75 11.44 -5.54 1.3-12.28 1.38-17.04 4.74 -5.18 3.66-7.31 9.98-6.09 16.1 3.11 15.59 21.79 23.7 34.96 28.6 11.63 4.33 23.73 7.39 35.85 9.95 7.39 1.56 14.83 2.92 22.28 4.14 3.64 0.6 5.3 0.35 6.63 3.87 1.03 2.72 1.69 5.58 2.37 8.41 1.66 6.95 2.99 13.97 4.89 20.85 1.25 4.52 2.88 8.82 6.69 11.82 9.86 7.76 25.46 1.77 36.42-0.18 29.26-5.2 61.15-5.02 87.5 10.14 22.89 13.16 42.65 30.99 66.6 42.44 25.47 12.18 53.62 15.69 81.6 13.09 26.21-2.44 49.91-13.2 71.66-27.55 23.75-15.67 45.59-35.56 74.78-39.52 15.89-2.15 31.99-2.03 47.86 0.18 11 1.53 22.44 5.37 33.62 4.4 15.17-1.33 16.76-17.84 19.39-29.79 1.06-4.81 1.54-12 4.42-16.12 1.69-2.42 6.45-2.17 9.36-2.66 4.07-0.69 8.13-1.43 12.19-2.22 21.26-4.15 44.79-9.04 63.07-21.36 5.29-3.57 10.34-8.12 12.97-14.06 2.47-5.58 2.55-12.06-1.17-17.11C868.74 692.67 863.06 692.08 857.08 690.88z"/><path fill-rule="evenodd" clip-rule="evenodd" d="M511.04 398.83c-0.04 0.82-0.07 1.65-0.11 2.47 4.53 3.16 8.86 6.68 13.65 9.4 10.85 6.16 21.77 12.24 32.96 17.75 11.5 5.66 23.19 11 35.11 15.69 5.61 2.21 11.92 3.29 17.97 3.59 10.12 0.51 17.52-4.61 20.23-14.32 1.71-6.13 2.51-12.85 2.07-19.2 -1.82-25.95-23.44-43.41-48.75-38.24 -21.13 4.32-41.88 10.59-62.68 16.43C517.7 393.47 514.5 396.63 511.04 398.83zM420.83 377.67c-10.59-0.31-19.49 1.98-28.84 7.08 -5.3 2.89-9.23 6.98-9.55 13.03 -0.48 9.07-0.6 18.22-0.04 27.28 0.63 10.26 6.76 16.71 16.43 19.67 3.5 1.07 7.17 1.97 10.8 2.16 20.44 1.07 37.62-7.17 53.46-19.13 2.22-1.68 4.87-2.8 7.02-4.55 7.61-6.2 15.36-12.28 22.52-18.98 3.66-3.43 3-8.25-0.4-9.71C469.41 384.72 445.71 378.69 420.83 377.67zM548 613.02c-14.08 0-27.48 0.89-40.71-0.25 -13.14-1.13-26.11-4.31-39.19-6.6 -4.22 13.88 0.39 22.03 14.47 24.98 1.72 0.36 3.46 0.71 5.21 0.78 14.73 0.57 29.57-0.68 44.05 3.44 3.55 1.01 6.62-0.4 8.22-4.02C542.77 625.14 545.45 618.9 548 613.02zM473.22 571.09c0.24 0.39 0.48 0.77 0.72 1.16 24.07-7.77 48.01-2.37 73.08 0.96 -3.24-6.46-6.19-11.82-8.64-17.41 -2.19-4.99-5.34-6.23-10.41-4.48 -10.58 3.66-21.23 4.19-32.05 0.49 -2.85-0.97-6.25-0.72-9.35-0.43 -1.45 0.14-3.31 1.37-4.07 2.66C479.23 559.62 476.28 565.39 473.22 571.09zM534.45 638.08c-21.6-4.78-43.7 1.31-64.64-9.3 5.73 13.04 14.26 21.63 25.82 27.29 6.61 3.23 13.37 2.86 19.88-0.31C523.29 651.96 529.11 645.98 534.45 638.08zM532.84 546.52c-6.86-7.95-13.25-15.12-24.08-15.48 -11.78-0.39-15 9.89-21.75 17.24C502.55 548.04 517.43 554.99 532.84 546.52zM489.36 584.94c0.31-0.01 0.61-0.03 0.92-0.04 0.12 1.14 0.36 2.29 0.34 3.43 -0.12 6.66 0.25 7.1 6.75 7.51 7.61 0.49 9.48-1.08 9.4-8.84 -0.04-3.64-0.46-7.44-1.61-10.86 -0.72-2.13-3.42-5.36-4.73-5.14 -2.41 0.4-4.88 2.66-6.54 4.76 -1.69 2.13-2.44 5-3.6 7.55 -2.11-2.92-2.65-5.66-3.69-8.2 -0.41-1-1.86-1.84-3.01-2.17 -0.64-0.18-2.24 0.73-2.35 1.34 -0.95 5.34-1.86 10.7-2.28 16.1 -0.1 1.25 1.56 3.54 2.72 3.76 1.3 0.24 3.43-0.96 4.31-2.18C487.47 589.88 488.27 587.3 489.36 584.94zM524.04 589.31c-0.13-1.75-0.1-3.53-0.43-5.24 -0.5-2.58-0.89-5.29-2.02-7.61 -0.86-1.77-3.04-4.41-4.19-4.2 -2.15 0.39-5.05 2.19-5.7 4.08 -1.36 3.89-1.67 8.21-2 12.39 -0.4 5.1 3.19 7.82 9.52 7.9C524.82 596.68 523.97 592.78 524.04 589.31zM514.06 417.21c-2.14-5.86-11.09-7.43-16.07-3.42 -12.45 10.04-24.89 20.11-37.61 29.8 -11.8 8.98-25.06 14.13-40.21 13.31 -1.86-0.1-3.73 0.16-5.6 0.26 9.29 2.32 18.52 2.24 27.22-1.59 15.69-6.9 30.5-15.19 42.39-27.98 3.32-3.57 7.22-6.76 11.31-9.43C501.21 414.43 507.41 412 514.06 417.21zM632.48 384.53c0.73 1.34 1.51 2.65 2.17 4.02 10.77 22.5 10.69 46.43-8.81 63.8 -6.09 5.42-12.42 7.53-20.28 5.15 -3.28-0.99-6.71-1.52-10.07-2.26 14.3 8.61 29.41 6.06 38.12-6.85 7.9-11.71 12.03-24.77 9.56-39.32C641.61 400 640.19 391.01 632.48 384.53zM480.49 538.25c0.47 0.39 0.93 0.78 1.4 1.17 2.13-2.58 4.19-5.21 6.39-7.74 13.23-15.24 37.22-12.09 48.16 2.11 4.71 6.11 8.7 12.77 12.87 19.28 1.42 2.23 2.38 4.75 3.54 7.15 -3.41-14.18-10.35-26.15-22.42-34.53C512.25 513.08 491.11 518.5 480.49 538.25zM539.05 586.14c-0.45-2.39-0.73-5.19-1.57-7.82 -0.48-1.52-2.09-3.99-2.78-3.86 -1.84 0.35-4.7 1.65-4.94 2.97 -0.89 5-1.13 10.16-0.99 15.25 0.02 0.82 3.27 2.16 5.01 2.14 1.48-0.01 3.51-1.31 4.28-2.63C538.95 590.65 538.73 588.47 539.05 586.14zM521.58 666.01c-13.47 5.4-26.02 3.56-37.95-3.93 -13.01-8.17-19.22-20.62-21.94-35.23 -0.51-2.74-1.05-5.47-1.58-8.2 -0.51 0.09-1.02 0.18-1.54 0.27 0.33 2.69 0.58 5.39 1 8.07 3.67 23.36 16.67 38.31 38.16 43.5C506.2 672.53 514.47 672.16 521.58 666.01zM546.21 372.08c-0.27-0.57-0.53-1.15-0.8-1.72 -7.77 2.68-15.54 5.35-23.3 8.04 -8.54 2.96-17.21 5.38-26.36 3.9 -3.58-0.58-7.05-1.89-10.97-2.97 0.47 0.81 0.58 1.18 0.83 1.4 0.53 0.46 1.09 0.9 1.7 1.23 9.14 5.13 18.51 4.51 28.08 1.29 8.15-2.74 16.4-5.16 24.54-7.91C542.13 374.59 544.12 373.18 546.21 372.08zM548.15 636.4c0.44 0.1 0.88 0.2 1.31 0.31 8.51-18.63 10.68-38.03 6.37-58.14 -0.9 9.75-0.01 19.65-1.15 29.32C553.56 617.51 550.41 626.9 548.15 636.4zM397.3 453.48c-18.03-7.27-25.62-21.43-26.6-40.08C366.9 430.57 380.42 452.12 397.3 453.48zM471.33 575.69c-1.11 4.84-2.03 8.33-2.7 11.86 -1.09 5.81 0.19 6.89 7.05 5.55C474.67 587.71 477.66 581.57 471.33 575.69zM496.01 600.03c3.61 3.23-1.1 11.03 7.04 9.8 7.37-1.12 2.22-7.6 4.7-11.53C503.7 598.9 500.66 599.34 496.01 600.03zM443.41 368.97c-9.69-6.19-31.09-4.91-39.05 2.17 6.06-1.17 12.48-3.1 18.99-3.46C430.05 367.32 436.84 368.49 443.41 368.97zM521.31 609.86c2.69-0.56 6.37-0.42 6.85-1.59 1.32-3.26 1.3-7.05 1.86-10.95C521.74 598.6 522.25 604.12 521.31 609.86zM490.95 608.92c4.43-9.7 3.13-12.27-5.68-11.83C485.76 601.59 484.95 606.49 490.95 608.92zM548.03 593.55c1.41-7.83 0.61-12.27-2.67-15.52C540.66 585.5 541.5 591.18 548.03 593.55zM510.21 598.19c0.52 3.04 0.39 5.5 1.42 7.3 0.96 1.68 3.16 2.64 4.81 3.92 0.72-1.59 1.61-3.12 2.12-4.78 0.39-1.28 0.3-2.7 0.44-4.33C516.27 599.64 513.79 599.05 510.21 598.19zM537.98 609.01c0.78-0.14 1.56-0.28 2.33-0.43 0.56-4.03 1.11-8.05 1.75-12.67 -3.81 1.57-6.29 2.6-9.67 3.99C534.37 603.14 536.17 606.08 537.98 609.01zM482.98 606.14c-0.29-2.82 0.01-4.48-0.67-5.51 -1.09-1.66-2.62-3.3-4.36-4.14 -0.95-0.46-2.71 0.74-4.11 1.19 0.89 1.98 1.37 4.36 2.8 5.81C477.93 604.79 480.25 605.07 482.98 606.14zM464.39 570.74c3.85-8.54 7.37-16.33 10.89-24.12 -0.41-0.17-0.81-0.33-1.22-0.5C470.66 553.98 464.06 560.48 464.39 570.74zM556.13 366.67c0.11 0.68 0.23 1.35 0.34 2.03 5.63-0.89 11.26-1.78 16.89-2.68 -0.1-0.56-0.2-1.11-0.3-1.66C567.42 365.13 561.78 365.9 556.13 366.67zM560.53 440.95c-0.3 0.5-0.6 0.99-0.9 1.49 5.14 2.8 10.27 5.59 15.4 8.39 0.29-0.56 0.57-1.11 0.86-1.66C570.76 446.42 565.65 443.69 560.53 440.95z"/><path fill-rule="evenodd" clip-rule="evenodd" fill="#FFFFFF" d="M548 613.02c-2.55 5.88-5.23 12.12-7.97 18.33 -1.59 3.61-4.67 5.02-8.21 4.02 -14.48-4.11-29.32-2.86-44.05-3.44 -1.74-0.07-3.49-0.42-5.21-0.78 -14.08-2.95-18.69-11.1-14.47-24.98 13.09 2.29 26.05 5.47 39.2 6.6C520.51 613.91 533.92 613.02 548 613.02z"/><path fill-rule="evenodd" clip-rule="evenodd" fill="#FFFFFF" d="M473.22 571.09c3.07-5.7 6.01-11.47 9.29-17.05 0.75-1.28 2.61-2.52 4.07-2.65 3.09-0.29 6.5-0.54 9.35 0.43 10.82 3.7 21.47 3.17 32.05-0.49 5.07-1.75 8.23-0.52 10.41 4.48 2.44 5.59 5.4 10.95 8.64 17.41 -25.08-3.33-49.01-8.73-73.08-0.96C473.7 571.87 473.46 571.48 473.22 571.09z"/><path fill-rule="evenodd" clip-rule="evenodd" fill="#FFFFFF" d="M534.45 638.08c-5.34 7.89-11.16 13.88-18.94 17.68 -6.51 3.17-13.27 3.54-19.88 0.31 -11.56-5.66-20.09-14.25-25.82-27.29C490.75 639.39 512.84 633.3 534.45 638.08z"/><path fill-rule="evenodd" clip-rule="evenodd" fill="#FFFFFF" d="M532.84 546.52c-15.4 8.47-30.29 1.51-45.83 1.76 6.75-7.35 9.97-17.63 21.75-17.24C519.58 531.41 525.98 538.57 532.84 546.52z"/><path fill-rule="evenodd" clip-rule="evenodd" fill="#FFFFFF" d="M514.06 417.21c-6.64-5.2-12.85-2.78-18.58 0.95 -4.09 2.66-7.99 5.85-11.31 9.43 -11.89 12.79-26.7 21.08-42.39 27.98 -8.7 3.83-17.93 3.92-27.22 1.59 1.87-0.09 3.75-0.36 5.6-0.26 15.15 0.81 28.41-4.33 40.21-13.31 12.73-9.69 25.16-19.76 37.62-29.8C502.97 409.78 511.92 411.35 514.06 417.21z"/><path fill-rule="evenodd" clip-rule="evenodd" fill="#FFFFFF" d="M632.48 384.53c7.71 6.48 9.13 15.47 10.67 24.53 2.47 14.55-1.66 27.61-9.55 39.32 -8.71 12.91-23.82 15.46-38.12 6.85 3.36 0.74 6.79 1.27 10.07 2.27 7.86 2.38 14.19 0.27 20.28-5.15 19.51-17.37 19.59-41.3 8.81-63.79C633.99 387.18 633.21 385.87 632.48 384.53z"/><path fill-rule="evenodd" clip-rule="evenodd" fill="#FFFFFF" d="M480.49 538.25c10.62-19.76 31.76-25.18 49.93-12.56 12.06 8.37 19.01 20.34 22.42 34.53 -1.17-2.39-2.12-4.92-3.54-7.14 -4.16-6.51-8.16-13.17-12.86-19.28 -10.94-14.2-34.93-17.36-48.16-2.11 -2.19 2.52-4.26 5.16-6.38 7.74C481.42 539.03 480.95 538.64 480.49 538.25z"/><path fill-rule="evenodd" clip-rule="evenodd" fill="#FFFFFF" d="M521.58 666.01c-7.11 6.15-15.38 6.53-23.85 4.48 -21.49-5.19-34.49-20.14-38.16-43.5 -0.42-2.67-0.67-5.38-1-8.07 0.51-0.09 1.03-0.18 1.54-0.27 0.53 2.73 1.07 5.46 1.58 8.2 2.72 14.61 8.94 27.05 21.94 35.23C495.56 669.57 508.11 671.4 521.58 666.01z"/><path fill-rule="evenodd" clip-rule="evenodd" fill="#FFFFFF" d="M546.21 372.08c-2.09 1.11-4.08 2.52-6.29 3.26 -8.14 2.75-16.39 5.17-24.53 7.91 -9.56 3.22-18.94 3.84-28.08-1.29 -0.61-0.34-1.17-0.78-1.7-1.23 -0.25-0.21-0.36-0.58-0.83-1.4 3.92 1.09 7.39 2.4 10.98 2.97 9.15 1.48 17.81-0.94 26.36-3.9 7.76-2.69 15.53-5.36 23.3-8.04C545.68 370.93 545.94 371.51 546.21 372.08z"/><path fill-rule="evenodd" clip-rule="evenodd" fill="#FFFFFF" d="M548.15 636.4c2.26-9.5 5.41-18.89 6.54-28.52 1.13-9.66 0.25-19.57 1.15-29.32 4.31 20.11 2.15 39.51-6.37 58.14C549.03 636.6 548.59 636.5 548.15 636.4z"/><path fill-rule="evenodd" clip-rule="evenodd" fill="#FFFFFF" d="M397.3 453.48c-16.88-1.36-30.41-22.9-26.6-40.08C371.68 432.05 379.27 446.21 397.3 453.48z"/><path fill-rule="evenodd" clip-rule="evenodd" fill="#FFFFFF" d="M443.41 368.97c-6.57-0.48-13.36-1.65-20.06-1.28 -6.51 0.36-12.93 2.29-18.99 3.46C412.32 364.06 433.72 362.77 443.41 368.97z"/><linearGradient id="SVGID_1_" gradientUnits="userSpaceOnUse" x1="528.73" y1="584.63" x2="539.05" y2="584.63"><stop offset="0.01" stop-color="#FBC926"/><stop offset="0.25" stop-color="#FFFBCC"/><stop offset="0.3" stop-color="#F8F0BB"/><stop offset="0.41" stop-color="#E7D28E"/><stop offset="0.55" stop-color="#CCA246"/><stop offset="0.6" stop-color="#C3922E"/><stop offset="0.87" stop-color="#EED688"/><stop offset="1" stop-color="#FFFBCC"/></linearGradient><path fill-rule="evenodd" clip-rule="evenodd" fill="url(#SVGID_1_)" d="M533.78 594.81c1.48-0.01 3.51-1.31 4.28-2.63 0.89-1.53 0.67-3.71 0.98-6.04 -0.45-2.39-0.73-5.19-1.57-7.82 -0.48-1.52-2.09-3.99-2.78-3.86 -1.84 0.35-4.7 1.65-4.94 2.97 -0.89 5-1.13 10.16-0.99 15.25C528.79 593.49 532.04 594.83 533.78 594.81z"/><linearGradient id="SVGID_2_" gradientUnits="userSpaceOnUse" x1="521.31" y1="603.59" x2="530.02" y2="603.59"><stop offset="0.01" stop-color="#FBC926"/><stop offset="0.25" stop-color="#FFFBCC"/><stop offset="0.3" stop-color="#F8F0BB"/><stop offset="0.41" stop-color="#E7D28E"/><stop offset="0.55" stop-color="#CCA246"/><stop offset="0.6" stop-color="#C3922E"/><stop offset="0.87" stop-color="#EED688"/><stop offset="1" stop-color="#FFFBCC"/></linearGradient><path fill-rule="evenodd" clip-rule="evenodd" fill="url(#SVGID_2_)" d="M521.31 609.86c2.69-0.56 6.37-0.42 6.85-1.59 1.32-3.26 1.3-7.05 1.86-10.95C521.74 598.6 522.25 604.12 521.31 609.86z"/><linearGradient id="SVGID_3_" gradientUnits="userSpaceOnUse" x1="542.38" y1="585.79" x2="548.69" y2="585.79"><stop offset="0.01" stop-color="#FBC926"/><stop offset="0.25" stop-color="#FFFBCC"/><stop offset="0.3" stop-color="#F8F0BB"/><stop offset="0.41" stop-color="#E7D28E"/><stop offset="0.55" stop-color="#CCA246"/><stop offset="0.6" stop-color="#C3922E"/><stop offset="0.87" stop-color="#EED688"/><stop offset="1" stop-color="#FFFBCC"/></linearGradient><path fill-rule="evenodd" clip-rule="evenodd" fill="url(#SVGID_3_)" d="M545.36 578.03c-4.69 7.47-3.86 13.15 2.67 15.53C549.44 585.72 548.64 581.28 545.36 578.03z"/><linearGradient id="SVGID_4_" gradientUnits="userSpaceOnUse" x1="510.21" y1="603.8" x2="519.01" y2="603.8"><stop offset="0.01" stop-color="#FBC926"/><stop offset="0.25" stop-color="#FFFBCC"/><stop offset="0.3" stop-color="#F8F0BB"/><stop offset="0.41" stop-color="#E7D28E"/><stop offset="0.55" stop-color="#CCA246"/><stop offset="0.6" stop-color="#C3922E"/><stop offset="0.87" stop-color="#EED688"/><stop offset="1" stop-color="#FFFBCC"/></linearGradient><path fill-rule="evenodd" clip-rule="evenodd" fill="url(#SVGID_4_)" d="M511.63 605.49c0.96 1.68 3.16 2.64 4.81 3.92 0.72-1.59 1.61-3.12 2.12-4.78 0.39-1.28 0.3-2.7 0.44-4.33 -2.73-0.66-5.22-1.25-8.8-2.11C510.73 601.22 510.6 603.69 511.63 605.49z"/><linearGradient id="SVGID_5_" gradientUnits="userSpaceOnUse" x1="532.39" y1="602.46" x2="542.06" y2="602.46"><stop offset="0.01" stop-color="#FBC926"/><stop offset="0.25" stop-color="#FFFBCC"/><stop offset="0.3" stop-color="#F8F0BB"/><stop offset="0.41" stop-color="#E7D28E"/><stop offset="0.55" stop-color="#CCA246"/><stop offset="0.6" stop-color="#C3922E"/><stop offset="0.87" stop-color="#EED688"/><stop offset="1" stop-color="#FFFBCC"/></linearGradient><path fill-rule="evenodd" clip-rule="evenodd" fill="url(#SVGID_5_)" d="M537.98 609.01c0.78-0.14 1.56-0.28 2.33-0.43 0.56-4.03 1.11-8.05 1.75-12.67 -3.81 1.57-6.29 2.6-9.67 3.99C534.37 603.14 536.17 606.08 537.98 609.01z"/><linearGradient id="SVGID_6_" gradientUnits="userSpaceOnUse" x1="478.96" y1="583.46" x2="506.78" y2="583.46"><stop offset="0.01" stop-color="#FBC926"/><stop offset="0.25" stop-color="#FFFBCC"/><stop offset="0.3" stop-color="#F8F0BB"/><stop offset="0.41" stop-color="#E7D28E"/><stop offset="0.55" stop-color="#CCA246"/><stop offset="0.6" stop-color="#C3922E"/><stop offset="0.87" stop-color="#EED688"/><stop offset="1" stop-color="#FFFBCC"/></linearGradient><path fill-rule="evenodd" clip-rule="evenodd" fill="url(#SVGID_6_)" d="M481.68 594.14c1.3 0.24 3.43-0.96 4.31-2.18 1.49-2.08 2.29-4.65 3.38-7.02 0.31-0.01 0.61-0.03 0.92-0.04 0.12 1.14 0.36 2.29 0.34 3.43 -0.12 6.66 0.25 7.1 6.75 7.51 7.61 0.49 9.48-1.08 9.4-8.84 -0.04-3.64-0.46-7.44-1.61-10.86 -0.72-2.13-3.42-5.36-4.73-5.14 -2.41 0.4-4.88 2.66-6.54 4.76 -1.69 2.13-2.44 5-3.6 7.55 -2.11-2.92-2.65-5.66-3.69-8.2 -0.41-1-1.86-1.84-3.01-2.17 -0.64-0.18-2.24 0.73-2.35 1.34 -0.95 5.34-1.86 10.7-2.28 16.1C478.86 591.64 480.53 593.92 481.68 594.14z"/><linearGradient id="SVGID_7_" gradientUnits="userSpaceOnUse" x1="509.67" y1="584.43" x2="524.05" y2="584.43"><stop offset="0.01" stop-color="#FBC926"/><stop offset="0.25" stop-color="#FFFBCC"/><stop offset="0.3" stop-color="#F8F0BB"/><stop offset="0.41" stop-color="#E7D28E"/><stop offset="0.55" stop-color="#CCA246"/><stop offset="0.6" stop-color="#C3922E"/><stop offset="0.87" stop-color="#EED688"/><stop offset="1" stop-color="#FFFBCC"/></linearGradient><path fill-rule="evenodd" clip-rule="evenodd" fill="url(#SVGID_7_)" d="M524.04 589.31c-0.13-1.75-0.1-3.53-0.43-5.24 -0.5-2.58-0.89-5.29-2.02-7.61 -0.86-1.77-3.04-4.41-4.19-4.2 -2.15 0.39-5.05 2.19-5.7 4.08 -1.36 3.89-1.67 8.21-2 12.39 -0.4 5.1 3.19 7.82 9.52 7.9C524.82 596.68 523.97 592.78 524.04 589.31z"/><linearGradient id="SVGID_8_" gradientUnits="userSpaceOnUse" x1="468.29" y1="584.65" x2="475.68" y2="584.65"><stop offset="0.01" stop-color="#FBC926"/><stop offset="0.25" stop-color="#FFFBCC"/><stop offset="0.3" stop-color="#F8F0BB"/><stop offset="0.41" stop-color="#E7D28E"/><stop offset="0.55" stop-color="#CCA246"/><stop offset="0.6" stop-color="#C3922E"/><stop offset="0.87" stop-color="#EED688"/><stop offset="1" stop-color="#FFFBCC"/></linearGradient><path fill-rule="evenodd" clip-rule="evenodd" fill="url(#SVGID_8_)" d="M471.33 575.69c-1.11 4.84-2.03 8.33-2.7 11.86 -1.09 5.81 0.19 6.89 7.05 5.55C474.67 587.71 477.66 581.57 471.33 575.69z"/><linearGradient id="SVGID_9_" gradientUnits="userSpaceOnUse" x1="496.01" y1="604.13" x2="507.75" y2="604.13"><stop offset="0.01" stop-color="#FBC926"/><stop offset="0.25" stop-color="#FFFBCC"/><stop offset="0.3" stop-color="#F8F0BB"/><stop offset="0.41" stop-color="#E7D28E"/><stop offset="0.55" stop-color="#CCA246"/><stop offset="0.6" stop-color="#C3922E"/><stop offset="0.87" stop-color="#EED688"/><stop offset="1" stop-color="#FFFBCC"/></linearGradient><path fill-rule="evenodd" clip-rule="evenodd" fill="url(#SVGID_9_)" d="M496.01 600.03c3.61 3.23-1.1 11.03 7.04 9.8 7.37-1.12 2.22-7.6 4.7-11.53C503.7 598.9 500.66 599.34 496.01 600.03z"/><linearGradient id="SVGID_10_" gradientUnits="userSpaceOnUse" x1="485.28" y1="602.99" x2="493.43" y2="602.99"><stop offset="0.01" stop-color="#FBC926"/><stop offset="0.25" stop-color="#FFFBCC"/><stop offset="0.3" stop-color="#F8F0BB"/><stop offset="0.41" stop-color="#E7D28E"/><stop offset="0.55" stop-color="#CCA246"/><stop offset="0.6" stop-color="#C3922E"/><stop offset="0.87" stop-color="#EED688"/><stop offset="1" stop-color="#FFFBCC"/></linearGradient><path fill-rule="evenodd" clip-rule="evenodd" fill="url(#SVGID_10_)" d="M485.28 597.1c0.48 4.49-0.33 9.39 5.68 11.83C495.38 599.23 494.09 596.65 485.28 597.1z"/><linearGradient id="SVGID_11_" gradientUnits="userSpaceOnUse" x1="473.85" y1="601.26" x2="482.98" y2="601.26"><stop offset="0.01" stop-color="#FBC926"/><stop offset="0.25" stop-color="#FFFBCC"/><stop offset="0.3" stop-color="#F8F0BB"/><stop offset="0.41" stop-color="#E7D28E"/><stop offset="0.55" stop-color="#CCA246"/><stop offset="0.6" stop-color="#C3922E"/><stop offset="0.87" stop-color="#EED688"/><stop offset="1" stop-color="#FFFBCC"/></linearGradient><path fill-rule="evenodd" clip-rule="evenodd" fill="url(#SVGID_11_)" d="M477.95 596.48c-0.95-0.46-2.71 0.74-4.11 1.19 0.89 1.98 1.37 4.36 2.8 5.81 1.28 1.3 3.6 1.58 6.33 2.65 -0.29-2.82 0.01-4.48-0.67-5.51C481.22 598.97 479.69 597.32 477.95 596.48z"/><path fill-rule="evenodd" clip-rule="evenodd" fill="#FFFFFF" d="M464.39 570.74c-0.32-10.26 6.28-16.76 9.67-24.62 0.4 0.17 0.81 0.33 1.22 0.5C471.75 554.41 468.24 562.2 464.39 570.74z"/><path fill-rule="evenodd" clip-rule="evenodd" fill="#FFFFFF" d="M556.13 366.67c5.65-0.77 11.29-1.54 16.94-2.31 0.1 0.56 0.2 1.11 0.3 1.66 -5.63 0.89-11.26 1.79-16.89 2.68C556.36 368.02 556.25 367.35 556.13 366.67z"/><path fill-rule="evenodd" clip-rule="evenodd" fill="#FFFFFF" d="M560.53 440.95c5.12 2.74 10.24 5.48 15.36 8.22 -0.28 0.56-0.57 1.11-0.86 1.66 -5.13-2.8-10.27-5.59-15.4-8.39C559.92 441.94 560.22 441.44 560.53 440.95z"/><path fill-rule="evenodd" clip-rule="evenodd" d="M628.06 428.8c-3.82-5.31-7.57-1.95-11.49-0.56 -14.38 5.13-28.69 5.09-42.56-1.7 -3.35-1.64-6.19-4.32-9.87-6.94 11.26-10.87 23.88-12.42 37.38-9.78C613.01 412.06 622.97 416.87 628.06 428.8zM578.5 413.26c-4.03 2.18-7.23 3.91-10.42 5.65 -0.01 0.57-0.02 1.13-0.02 1.7 3.68 1.83 7.36 3.67 11.49 5.73C579.16 421.63 578.88 418.08 578.5 413.26zM622.13 422.85c-3.97-2.59-6.62-4.31-9.84-6.41 -0.19 3.84-0.33 6.86-0.52 10.79C615.11 425.81 617.89 424.64 622.13 422.85zM600.5 424.95c1.71-1.62 3.92-3.27 3.73-3.63 -0.88-1.65-2.43-2.95-3.75-4.37 -1.24 1.42-2.83 2.69-3.52 4.34C596.74 421.81 598.89 423.34 600.5 424.95z"/><path fill-rule="evenodd" clip-rule="evenodd" d="M562.78 410.72c8.49-16.54 41.07-20.79 56.5-7.32C598.86 393.85 580.14 396.71 562.78 410.72z"/><path fill-rule="evenodd" clip-rule="evenodd" d="M406.86 420.94c0.08 0.49 0.16 0.97 0.24 1.46 4.38 0.93 8.75 1.86 13.46 2.85 0-3.87 0-6.86 0-10.27C415.67 417.11 411.27 419.03 406.86 420.94zM453.76 422.02c3.06-2.15 5.63-3.95 9.26-6.5 -4.45-1.35-7.47-2.27-10.91-3.31C452.7 415.77 453.13 418.33 453.76 422.02zM441.87 423.55c1.8-1.83 4.1-3.38 3.86-4.08 -0.56-1.67-2.32-2.93-3.6-4.36 -1.25 1.4-2.92 2.64-3.56 4.28C438.3 420.07 440.26 421.61 441.87 423.55z"/><path fill-rule="evenodd" clip-rule="evenodd" d="M398.18 411.75c7.97-12.03 20.52-15.31 33.87-16.4 16.56-1.35 30.82 4.38 43.22 14.91 -0.2 0.48-0.41 0.95-0.61 1.43 -3.59-1.91-7.19-3.8-10.75-5.75 -13.73-7.5-28.25-9.99-43.36-5.65 -5.23 1.51-9.99 4.81-14.81 7.56 -2.41 1.38-4.47 3.36-6.69 5.07C398.75 412.53 398.47 412.14 398.18 411.75z"/><path fill-rule="evenodd" clip-rule="evenodd" fill="#FFFFFF" d="M578.5 413.26c0.38 4.81 0.67 8.37 1.04 13.07 -4.13-2.06-7.81-3.89-11.49-5.72 0.01-0.57 0.02-1.13 0.02-1.7C571.27 417.18 574.47 415.45 578.5 413.26z"/><path fill-rule="evenodd" clip-rule="evenodd" fill="#FFFFFF" d="M622.13 422.85c-4.24 1.79-7.02 2.96-10.36 4.37 0.19-3.93 0.34-6.95 0.53-10.78C615.51 418.54 618.16 420.27 622.13 422.85z"/><path fill-rule="evenodd" clip-rule="evenodd" fill="#FFFFFF" d="M600.5 424.95c-1.61-1.61-3.76-3.14-3.53-3.66 0.69-1.65 2.28-2.92 3.52-4.34 1.31 1.42 2.87 2.72 3.75 4.37C604.43 421.68 602.21 423.32 600.5 424.95z"/><path fill-rule="evenodd" clip-rule="evenodd" fill="#FFFFFF" d="M406.86 420.94c4.4-1.91 8.8-3.83 13.71-5.96 0 3.42 0 6.41 0 10.27 -4.71-1-9.09-1.93-13.46-2.85C407.03 421.91 406.95 421.43 406.86 420.94z"/><path fill-rule="evenodd" clip-rule="evenodd" fill="#FFFFFF" d="M453.76 422.02c-0.62-3.69-1.06-6.25-1.66-9.81 3.44 1.04 6.47 1.96 10.91 3.31C459.39 418.07 456.82 419.87 453.76 422.02z"/><path fill-rule="evenodd" clip-rule="evenodd" fill="#FFFFFF" d="M441.87 423.55c-1.61-1.94-3.56-3.48-3.3-4.16 0.64-1.64 2.31-2.88 3.56-4.28 1.28 1.43 3.04 2.69 3.6 4.36C445.96 420.17 443.66 421.73 441.87 423.55z"/><path fill-rule="evenodd" clip-rule="evenodd" fill="#FFFFFF" d="M492.22 394.5c-22.81-9.79-46.51-15.82-71.39-16.83 -10.59-0.31-19.49 1.98-28.84 7.08 -5.3 2.89-9.23 6.98-9.55 13.03 -0.48 9.07-0.6 18.22-0.04 27.28 0.63 10.26 6.76 16.71 16.43 19.67 3.5 1.07 7.17 1.97 10.8 2.16 20.44 1.07 37.62-7.17 53.46-19.13 2.22-1.68 4.87-2.8 7.02-4.55 7.61-6.2 15.36-12.28 22.52-18.98C496.29 400.79 495.62 395.96 492.22 394.5z"/><path fill-rule="evenodd" clip-rule="evenodd" fill="#FFFFFF" d="M632.91 414.22c-1.82-25.95-23.44-43.41-48.75-38.24 -21.13 4.32-41.88 10.59-62.68 16.43 -3.78 1.06-6.98 4.23-10.44 6.42 -0.04 0.82-0.07 1.65-0.11 2.47 4.53 3.16 8.86 6.68 13.65 9.4 10.85 6.16 21.77 12.24 32.96 17.75 11.5 5.66 23.19 11 35.11 15.69 5.61 2.21 11.92 3.29 17.97 3.59 10.12 0.51 17.52-4.61 20.23-14.32C632.55 427.28 633.35 420.56 632.91 414.22zM626.37 427c0.18-0.2 0.37-0.4 0.53-0.61 0.41 0.77 0.8 1.57 1.16 2.42C627.5 428.01 626.93 427.44 626.37 427z"/><path fill-rule="evenodd" clip-rule="evenodd" d="M561.39 418.68c17.59-18.72 55.84-8.82 60.15 9.07 -3.44-5.48-6.99-2.37-10.65-1.06 -13.41 4.81-26.78 4.89-39.78-1.31C567.68 423.74 564.75 421.04 561.39 418.68zM565.26 417.69c-0.13 0.57-0.25 1.14-0.38 1.71 3.47 1.78 6.93 3.56 10.93 5.62 -0.43-4.63-0.76-8.18-1.15-12.42C570.97 414.6 568.11 416.14 565.26 417.69zM606.47 425.85c3.19-1.52 5.82-2.76 9.41-4.47 -3.73-2.3-6.28-3.88-9.41-5.81C606.47 419.2 606.47 421.96 606.47 425.85zM590.45 420.63c2.77 0.9 4.33 1.9 5.7 1.69 1.14-0.18 2.06-1.79 3.07-2.77 -1.4-1.17-2.69-3.01-4.24-3.27C594.03 416.13 592.68 418.4 590.45 420.63z"/><path fill-rule="evenodd" clip-rule="evenodd" d="M613.2 403.58c-8.61-5.34-17.93-6.16-27.57-4.93 -9.69 1.23-18.3 4.94-25.53 11.79C564.48 396.28 598.97 389.3 613.2 403.58z"/><path fill-rule="evenodd" clip-rule="evenodd" d="M403.12 423.52c6.52-14.35 52.64-19.96 66.49-7.57 -12.02 9.05-25.22 13.21-40.15 10.93 -5.58-0.85-11.06-2.43-16.64-3.27C409.77 423.14 406.59 423.52 403.12 423.52zM425.53 423.93c0-3.64 0-6.47 0-9.82 -4.71 2.13-8.93 4.03-13.15 5.94 0.12 0.38 0.24 0.76 0.35 1.14C416.86 422.07 421 422.96 425.53 423.93zM455.3 411.36c0.6 3.56 1.03 6.1 1.59 9.43 2.74-1.89 5.2-3.58 8.56-5.89C461.57 413.55 458.84 412.59 455.3 411.36zM451.26 418.57c-2.61-2.05-4.09-4.1-5.39-3.99 -1.28 0.1-2.38 2.4-3.55 3.74 1.11 0.9 2.16 2.45 3.33 2.54C447 420.97 448.46 419.79 451.26 418.57z"/><path fill-rule="evenodd" clip-rule="evenodd" d="M405.01 412.25c6.7-12.3 18.34-15.45 30.77-16.57 15.86-1.43 29.52 3.94 41.42 14.01 -0.2 0.46-0.4 0.92-0.6 1.38 -3.35-1.79-6.73-3.55-10.06-5.38 -12.97-7.11-26.69-9.48-40.99-5.39 -4.95 1.42-9.46 4.53-14.02 7.11C409.19 408.74 407.17 410.62 405.01 412.25z"/><path fill-rule="evenodd" clip-rule="evenodd" fill="#FFFFFF" d="M565.26 417.69c2.86-1.55 5.71-3.09 9.4-5.09 0.39 4.24 0.72 7.79 1.15 12.42 -3.99-2.05-7.46-3.84-10.93-5.62C565.01 418.83 565.13 418.26 565.26 417.69z"/><path fill-rule="evenodd" clip-rule="evenodd" fill="#FFFFFF" d="M606.47 425.85c0-3.89 0-6.65 0-10.28 3.13 1.94 5.69 3.51 9.41 5.82C612.29 423.09 609.67 424.34 606.47 425.85z"/><path fill-rule="evenodd" clip-rule="evenodd" fill="#FFFFFF" d="M590.45 420.63c2.23-2.24 3.58-4.51 4.53-4.35 1.55 0.25 2.84 2.1 4.24 3.27 -1.01 0.98-1.93 2.59-3.07 2.77C594.78 422.53 593.22 421.53 590.45 420.63z"/><path fill-rule="evenodd" clip-rule="evenodd" fill="#FFFFFF" d="M425.53 423.93c-4.53-0.97-8.66-1.86-12.8-2.74 -0.12-0.38-0.24-0.76-0.35-1.14 4.22-1.9 8.44-3.81 13.15-5.93C425.53 417.45 425.53 420.29 425.53 423.93z"/><path fill-rule="evenodd" clip-rule="evenodd" fill="#FFFFFF" d="M455.3 411.36c3.54 1.23 6.27 2.19 10.14 3.54 -3.35 2.31-5.81 4-8.55 5.89C456.33 417.46 455.9 414.92 455.3 411.36z"/><path fill-rule="evenodd" clip-rule="evenodd" fill="#FFFFFF" d="M451.26 418.57c-2.8 1.22-4.26 2.39-5.62 2.29 -1.17-0.09-2.22-1.64-3.33-2.54 1.18-1.33 2.28-3.63 3.56-3.74C447.17 414.47 448.65 416.52 451.26 418.57z"/><g id="o047bc.tif"><path fill-rule="evenodd" clip-rule="evenodd" d="M402.6 433.42c-0.08 0.27-0.14 0.55-0.26 0.8 -0.43 0.91-1.51 1.74-2.92 1.5 -0.56-0.1-1.1-0.27-1.56-0.61 -0.84-0.61-1.11-1.45-0.94-2.45 0.1-0.61 0.36-1.16 0.68-1.68 0.37-0.59 0.76-1.18 1.12-1.78 0.42-0.71 0.72-1.47 0.96-2.26 0.04-0.12 0.14-0.23 0.21-0.34 0.06 0 0.12 0 0.19 0 0.12 0.07 0.19 0.18 0.22 0.32 0.05 0.21 0.12 0.42 0.18 0.64 0.32 1.08 0.8 2.09 1.34 3.08 0.24 0.44 0.44 0.9 0.62 1.37 0.09 0.24 0.12 0.51 0.17 0.76C402.6 432.97 402.6 433.2 402.6 433.42zM399.97 427.87c-0.03 0.06-0.04 0.1-0.06 0.14 -0.23 0.49-0.44 1-0.7 1.47 -0.35 0.62-0.75 1.2-1.13 1.8 -0.3 0.47-0.53 0.97-0.61 1.53 -0.08 0.58-0.01 1.12 0.41 1.56 0.25 0.27 0.56 0.47 0.9 0.6 0.58 0.21 1.18 0.33 1.79 0.13 1.11-0.38 1.66-1.44 1.4-2.64 -0.11-0.51-0.34-0.97-0.58-1.43 -0.36-0.71-0.72-1.43-1.05-2.15C400.19 428.55 400.1 428.22 399.97 427.87z"/></g><g id="o047bc.tif_1_"><path fill-rule="evenodd" clip-rule="evenodd" d="M398.17 445.63c-0.08 0.27-0.14 0.55-0.26 0.8 -0.43 0.91-1.51 1.74-2.92 1.5 -0.56-0.1-1.1-0.27-1.56-0.61 -0.84-0.61-1.11-1.45-0.94-2.45 0.1-0.61 0.36-1.16 0.68-1.68 0.37-0.59 0.76-1.18 1.12-1.78 0.42-0.71 0.72-1.47 0.96-2.26 0.04-0.12 0.14-0.23 0.21-0.34 0.06 0 0.12 0 0.19 0 0.12 0.07 0.19 0.18 0.22 0.32 0.05 0.21 0.12 0.42 0.18 0.64 0.32 1.08 0.8 2.09 1.34 3.08 0.24 0.44 0.44 0.9 0.62 1.37 0.09 0.24 0.12 0.51 0.17 0.76C398.17 445.18 398.17 445.41 398.17 445.63zM395.54 440.08c-0.03 0.06-0.04 0.1-0.06 0.14 -0.23 0.49-0.44 1-0.7 1.47 -0.35 0.62-0.75 1.2-1.13 1.8 -0.3 0.47-0.53 0.97-0.61 1.53 -0.08 0.58-0.01 1.12 0.41 1.56 0.25 0.27 0.56 0.47 0.9 0.6 0.58 0.21 1.18 0.33 1.79 0.13 1.11-0.38 1.66-1.44 1.4-2.64 -0.11-0.51-0.34-0.97-0.58-1.43 -0.36-0.71-0.72-1.43-1.05-2.15C395.76 440.77 395.66 440.43 395.54 440.08z"/></g></g></svg>
